<svg width="20" height="16" viewBox="0 0 20 16" fill="none" xmlns="http://www.w3.org/2000/svg">
<path d="M20 1.33333C20 0.872917 19.6271 0.5 19.1667 0.5H8.33333V8.83333H0V14.6667C0 15.1271 0.372917 15.5 0.833333 15.5H19.1667C19.6271 15.5 20 15.1271 20 14.6667V1.33333Z" fill="#B41F30"/>
<path d="M19.9999 2.16663H8.33325V3.83329H19.9999V2.16663Z" fill="#E6E6E6"/>
<path d="M19.9999 5.5H8.33325V7.16667H19.9999V5.5Z" fill="#E6E6E6"/>
<path d="M0 8.83337V10.5H20V8.83337H8.33333H0Z" fill="#E6E6E6"/>
<path d="M20 12.1666H0V13.8333H20V12.1666Z" fill="#E6E6E6"/>
<path d="M8.33333 8.83333H0V1.33333C0 0.872917 0.372917 0.5 0.833333 0.5H8.33333V8.83333Z" fill="#00256A"/>
<path d="M4.16678 3.80078L3.90303 4.37078H3.27637L3.7347 4.84578L3.56553 5.53245L4.16678 5.19161L4.76803 5.53245L4.59887 4.84578L5.0572 4.37078H4.4297L4.16678 3.80078Z" fill="white"/>
<path d="M2.12779 1.76208L1.86446 2.33208H1.23779L1.69571 2.80708L1.52654 3.49375L2.12779 3.15292L2.72946 3.49375L2.55988 2.80708L3.01821 2.33208H2.39071L2.12779 1.76208Z" fill="white"/>
<path d="M6.20536 1.76208L6.46869 2.33208H7.09536L6.63744 2.80708L6.80661 3.49375L6.20536 3.15292L5.60369 3.49375L5.77327 2.80708L5.31494 2.33208H5.94244L6.20536 1.76208Z" fill="white"/>
<path d="M2.12779 7.57127L1.86446 7.00127H1.23779L1.69571 6.52627L1.52654 5.8396L2.12779 6.18043L2.72946 5.8396L2.55988 6.52627L3.01821 7.00127H2.39071L2.12779 7.57127Z" fill="white"/>
<path d="M6.20536 7.57127L6.46869 7.00127H7.09536L6.63744 6.52627L6.80661 5.8396L6.20536 6.18043L5.60369 5.8396L5.77327 6.52627L5.31494 7.00127H5.94244L6.20536 7.57127Z" fill="white"/>
</svg>
