<svg width="138" height="25" viewBox="0 0 138 25" fill="none" xmlns="http://www.w3.org/2000/svg">
<path d="M24.696 5.824C27 5.824 28.7813 6.51733 30.04 7.904C31.32 9.29067 31.96 11.168 31.96 13.536V24H24.888V14.432C24.888 13.664 24.6533 13.0667 24.184 12.64C23.736 12.192 23.128 11.968 22.36 11.968C21.5707 11.968 20.952 12.192 20.504 12.64C20.056 13.0667 19.832 13.664 19.832 14.432V24H12.76V14.432C12.76 13.664 12.5253 13.0667 12.056 12.64C11.608 12.192 11 11.968 10.232 11.968C9.44267 11.968 8.824 12.192 8.376 12.64C7.928 13.0667 7.704 13.664 7.704 14.432V24H0.6V5.952H7.704V8.384C8.216 7.616 8.90933 6.99733 9.784 6.528C10.68 6.05867 11.7253 5.824 12.92 5.824C14.2213 5.824 15.3733 6.112 16.376 6.688C17.3787 7.24267 18.1787 8.032 18.776 9.056C19.4373 8.11733 20.28 7.34933 21.304 6.752C22.328 6.13333 23.4587 5.824 24.696 5.824ZM34.0775 14.976C34.0775 13.0773 34.3975 11.4347 35.0375 10.048C35.6988 8.64 36.5948 7.57333 37.7255 6.848C38.8562 6.10133 40.1255 5.728 41.5335 5.728C42.7068 5.728 43.7202 5.97333 44.5735 6.464C45.4268 6.93333 46.0775 7.584 46.5255 8.416V5.952H53.5975V24H46.5255V21.536C46.0775 22.368 45.4268 23.0293 44.5735 23.52C43.7202 23.9893 42.7068 24.224 41.5335 24.224C40.1255 24.224 38.8562 23.8613 37.7255 23.136C36.5948 22.3893 35.6988 21.3227 35.0375 19.936C34.3975 18.528 34.0775 16.8747 34.0775 14.976ZM46.5255 14.976C46.5255 14.016 46.2802 13.2693 45.7895 12.736C45.2988 12.2027 44.6695 11.936 43.9015 11.936C43.1335 11.936 42.5042 12.2027 42.0135 12.736C41.5228 13.2693 41.2775 14.016 41.2775 14.976C41.2775 15.936 41.5228 16.6827 42.0135 17.216C42.5042 17.7493 43.1335 18.016 43.9015 18.016C44.6695 18.016 45.2988 17.7493 45.7895 17.216C46.2802 16.6827 46.5255 15.936 46.5255 14.976ZM68.3395 24L63.8915 16.8V24H56.7875V0.32H63.8915V12.704L68.4035 5.952H76.6595L69.9075 15.04L76.8195 24H68.3395ZM95.8845 14.816C95.8845 15.3067 95.8525 15.776 95.7885 16.224H84.3645C84.4712 17.7813 85.1218 18.56 86.3165 18.56C87.0845 18.56 87.6392 18.208 87.9805 17.504H95.5005C95.2445 18.784 94.7005 19.936 93.8685 20.96C93.0578 21.9627 92.0232 22.7627 90.7645 23.36C89.5272 23.936 88.1618 24.224 86.6685 24.224C84.8765 24.224 83.2765 23.8507 81.8685 23.104C80.4818 22.3573 79.3938 21.2907 78.6045 19.904C77.8365 18.496 77.4525 16.8533 77.4525 14.976C77.4525 13.0987 77.8365 11.4667 78.6045 10.08C79.3938 8.672 80.4818 7.59467 81.8685 6.848C83.2765 6.10133 84.8765 5.728 86.6685 5.728C88.4605 5.728 90.0498 6.10133 91.4365 6.848C92.8445 7.57333 93.9325 8.61867 94.7005 9.984C95.4898 11.3493 95.8845 12.96 95.8845 14.816ZM88.6845 13.12C88.6845 12.5227 88.4925 12.0747 88.1085 11.776C87.7245 11.456 87.2445 11.296 86.6685 11.296C85.4098 11.296 84.6738 11.904 84.4605 13.12H88.6845ZM105.235 8.416C105.683 7.584 106.323 6.93333 107.155 6.464C108.009 5.97333 109.022 5.728 110.195 5.728C111.603 5.728 112.873 6.10133 114.003 6.848C115.134 7.57333 116.019 8.64 116.659 10.048C117.321 11.4347 117.651 13.0773 117.651 14.976C117.651 16.8747 117.321 18.528 116.659 19.936C116.019 21.3227 115.134 22.3893 114.003 23.136C112.873 23.8613 111.603 24.224 110.195 24.224C109.022 24.224 108.009 23.9893 107.155 23.52C106.323 23.0293 105.683 22.368 105.235 21.536V24H98.1313V0.32H105.235V8.416ZM110.451 14.976C110.451 14.016 110.206 13.2693 109.715 12.736C109.225 12.2027 108.595 11.936 107.827 11.936C107.059 11.936 106.43 12.2027 105.939 12.736C105.449 13.2693 105.203 14.016 105.203 14.976C105.203 15.936 105.449 16.6827 105.939 17.216C106.43 17.7493 107.059 18.016 107.827 18.016C108.595 18.016 109.225 17.7493 109.715 17.216C110.206 16.6827 110.451 15.936 110.451 14.976ZM128.457 24.224C126.644 24.224 125.012 23.8507 123.561 23.104C122.111 22.3573 120.969 21.2907 120.137 19.904C119.327 18.496 118.921 16.8533 118.921 14.976C118.921 13.0987 119.327 11.4667 120.137 10.08C120.969 8.672 122.111 7.59467 123.561 6.848C125.012 6.10133 126.644 5.728 128.457 5.728C130.271 5.728 131.903 6.10133 133.353 6.848C134.804 7.59467 135.935 8.672 136.745 10.08C137.577 11.4667 137.993 13.0987 137.993 14.976C137.993 16.8533 137.577 18.496 136.745 19.904C135.935 21.2907 134.804 22.3573 133.353 23.104C131.903 23.8507 130.271 24.224 128.457 24.224ZM128.457 18.08C129.119 18.08 129.673 17.824 130.121 17.312C130.569 16.7787 130.793 16 130.793 14.976C130.793 13.952 130.569 13.184 130.121 12.672C129.673 12.1387 129.119 11.872 128.457 11.872C127.796 11.872 127.241 12.1387 126.793 12.672C126.345 13.184 126.121 13.952 126.121 14.976C126.121 16 126.335 16.7787 126.761 17.312C127.209 17.824 127.775 18.08 128.457 18.08Z" fill="#0A0A0A"/>
</svg>
