<?xml version="1.0" encoding="utf-8"?>
<!-- Generator: Adobe Illustrator 28.3.0, SVG Export Plug-In . SVG Version: 6.00 Build 0)  -->
<svg version="1.1" id="Layer_1" xmlns="http://www.w3.org/2000/svg" xmlns:xlink="http://www.w3.org/1999/xlink" x="0px" y="0px"
	 viewBox="0 0 1066.2 899.1" style="enable-background:new 0 0 1066.2 899.1;" xml:space="preserve">
<style type="text/css">
	.st0{fill:#0026FF;}
	.st1{fill:#FFFFFF;}
	.st2{fill:#D1FF12;}
</style>
<g>
	<polygon class="st1" points="125.4,283.7 155.3,42.5 184.8,42.5 189.6,0 86.3,0 81.1,42.5 110.6,42.5 81.1,283.7 	"/>
	<polygon class="st1" points="212.6,283.7 228.6,155.7 252.9,155.7 237.3,283.7 281.5,283.7 316.2,0 272,0 257.7,113.6 233.4,113.6 
		247.3,0 203,0 168.3,283.7 	"/>
	<path class="st1" d="M395.2,283.7l4.8-42.5h-47.3l10-80.2l471.3,1.2l60.3-14.7l-25.6,14.8l0.1,0L626,321.1l-6.7,53.7l329.8-215.7
		c7.6-5,11.1-14.4,8.5-23.2c-2.6-8.7-10.6-14.8-19.7-14.8l-570.1-1.5l0.5-3.9l9.1-72.9h45.5L428.1,0h-89.8l-34.7,283.7H395.2z"/>
	<path class="st1" d="M98.9,483.9h13c36.4,0,65.5-36.9,65.5-115.8c0-42.5-16-62.5-45.1-62.5h-56L41.6,589.3h44.2L98.9,483.9z
		 M115.8,347.7h10.8c5.2,0,8.2,2.6,8.2,16.1c0,7.4-0.9,17.3-2.6,32.1c-5.2,41.2-10,49.9-17.8,49.9h-11.3L115.8,347.7z"/>
	<path class="st1" d="M278,589.3V305.6h-57.3l-72,283.7h43.4l13.4-64.2h29.9l-2.2,64.2H278z M213.4,489.1l27.3-131.4h0.9l-4.8,131.4
		H213.4z"/>
	<path class="st1" d="M382.1,305.6h-56.8l-34.7,283.7h57.3c36.4,0,59.4-25.2,65.9-76.8l16.9-131c0.9-6.5,1.3-13,1.3-18.7
		C432,324.3,414.2,305.6,382.1,305.6z M386.5,382.4L370,512.1c-3.9,30.4-8.2,35.6-17.8,35.6h-12.6l25.2-200h13c6.5,0,10,2.6,10,15.6
		C387.8,368.1,387.3,374.6,386.5,382.4z"/>
	<path class="st1" d="M141.4,668.7c0-38.6-17.8-57.3-49.9-57.3H34.7L0,895.2h57.3c36.4,0,59.4-25.2,65.9-76.8l16.9-131
		C141,680.9,141.4,674.4,141.4,668.7z M95.9,688.3L79.4,818c-3.9,30.4-8.2,35.6-17.8,35.6H49l25.2-200h13c6.5,0,10,2.6,10,15.6
		C97.2,674,96.7,680.5,95.9,688.3z"/>
	<polygon class="st1" points="170.5,611.5 135.8,895.2 180,895.2 214.7,611.5 	"/>
	<path class="st1" d="M337.9,691.7c1.3-9.1,1.7-17.8,1.7-25.2c0-38.6-14.8-55.1-43.4-55.1h-57.7l-34.7,283.7h44.2l14.8-118.9h6.9
		l5.6,118.9h44.2l-10-133.6C324,752.9,332.3,733.8,337.9,691.7z M294.5,696.9c-5.2,36.4-10.4,41.2-19.1,41.2h-8.2L278,654h8.2
		c6.1,0,10.4,1.7,10.4,17.4C296.7,677.4,295.8,685.7,294.5,696.9z"/>
	<polygon class="st1" points="427.2,765.5 431.6,727.3 396.5,727.3 405.6,654.4 451.1,654.4 456.3,611.5 366.5,611.5 331.8,895.2 
		423.3,895.2 428.1,852.7 380.8,852.7 391.7,765.5 	"/>
	<path class="st1" d="M522.2,607.6c-33,0-56.8,26.9-62.5,73.3l-18.7,150.5c-0.9,5.2-0.9,10.4-0.9,15.2c0,33,15.6,52.5,45.1,52.5
		c31.7,0,52-18.7,61.6-71.6l-35.6-6.1c-5.2,29.1-9.5,36.4-17.8,36.4c-6.9,0-10-5.6-10-16.5c0-3,0.4-6.5,0.9-10.4l19.1-150.1
		c3-23.9,6.9-31.2,16-31.2c6.1,0,9.5,5.2,9.5,21.3c0,3.5,0,7.8-0.4,12.6l36.9-6.5c0-3.5,0.4-6.9,0.4-10
		C566.1,628,549.6,607.6,522.2,607.6z"/>
	<polygon class="st1" points="682.7,611.5 579.5,611.5 574.3,654 603.8,654 574.3,895.2 618.5,895.2 648.5,654 678,654 	"/>
	<path class="st1" d="M798.6,662.7c0-37.7-16.1-55.1-49.4-55.1c-39.5,0-59.4,23.9-65.9,75.5l-17.8,140.1c-0.9,7.8-1.3,14.7-1.3,21.3
		c0,36.9,15.6,54.7,49,54.7c39,0,59.9-24.3,66.4-75.9l17.8-140.1C798.1,675.7,798.6,668.7,798.6,662.7z M753,683.1l-17.8,140.1
		c-3.5,28.6-7.8,34.3-17.3,34.3c-6.9,0-10.4-3-10.4-15.2c0-4.8,0.9-10.8,1.7-19.1l17.4-140.1c3.5-28.6,9.1-33.8,18.2-33.8
		c6.5,0,9.5,2.6,9.5,14.7C754.3,668.7,753.9,674.8,753,683.1z"/>
	<path class="st1" d="M882.3,611.5h-57.7l-34.7,283.7h44.2l14.7-118.9h6.9l5.6,118.9h44.2l-10-133.6c14.3-8.7,22.6-27.8,28.2-69.8
		c1.3-9.1,1.7-17.8,1.7-25.2C925.6,628,910.9,611.5,882.3,611.5z M880.5,696.9c-5.2,36.4-10.4,41.2-19.1,41.2h-8.2l10.8-84.1h8.2
		c6.1,0,10.4,1.7,10.4,17.4C882.7,677.4,881.8,685.7,880.5,696.9z"/>
	<polygon class="st1" points="1019.8,611.5 986.8,747.3 985.9,747.3 985.9,611.5 937.8,611.5 955.1,817.1 945.6,895.2 989,895.2 
		998.5,816.7 1066.2,611.5 	"/>
	<polygon class="st1" points="573.4,305.6 558.3,429.5 600.4,434.5 616.8,305.6 	"/>
	<polygon class="st1" points="550.3,494.7 538.7,589.3 628.1,589.3 632.9,545.9 586.9,545.9 592.3,502.5 	"/>
	<path class="st1" d="M524.8,436.6L524.8,436.6l-23-2.6l46.4-12.8l6.6-53.6l-64.4,42.1l7.6-61.2h45.5l5.2-42.9h-89.8l-34.7,283.7
		h91.5l4.8-42.5h-47.3l9.5-75.8l406.5,75.3c38,7.7,75.7,17.4,111.5,32.2c5.6,2.3,11.6,3.5,18,3.5c27,0,48.8-22.6,47.4-49.9
		c-1.2-23-19.2-42.1-42-44.7c-3-0.3-5.9-0.4-8.7-0.2c-38,2.7-76.3-0.5-114-5.9L524.8,436.6z"/>
</g>
</svg>
