<?xml version="1.0" encoding="UTF-8"?>
<svg id="Layer_1" xmlns="http://www.w3.org/2000/svg" width="598.4" height="329" version="1.1" viewBox="0 0 598.4 329">
  <!-- Generator: Adobe Illustrator 29.3.1, SVG Export Plug-In . SVG Version: 2.1.0 Build 151)  -->
  <defs>
    <style>
      .st0 {
        fill: #cfdd28;
      }
    </style>
  </defs>
  <path class="st0" d="M594.5,157.9L382.6,1.8c-3.5-2.5-8.3-2.5-11.8.4l-134.8,113.8L127.1,7c-4.9-4.6-11.4,2.3-7.1,7l105.9,110.5L21.9,296.6c8.2-67.5,30.6-254.6,30.9-254.9.7-8.3-5.5-15.5-13.7-16.2-8.3-.7-15.5,5.5-16.2,13.7C23,39.2,0,318.5,0,318.5c-.9,8.5,9.3,13.7,15.6,8.2,0,0,116.9-98.6,223.4-188.5l179.9,187.8c3.6,3.7,9.5,3.9,13.2.3,0,0,163.2-153.9,163.2-154,.4-.4.8-.8,1.1-1.3,3.1-4.2,2.2-10.2-2-13.3ZM249.4,129.5c59.2-49.9,124-104.6,127.9-107.9,10.9,8,180.5,132.9,196.8,144.9-14.3,13.5-136.5,128.7-148.2,139.8l-176.5-176.8Z"/>
</svg>