<?xml version="1.0" encoding="UTF-8"?>
<svg id="Layer_1" xmlns="http://www.w3.org/2000/svg" width="618.9" height="316.7" version="1.1" viewBox="0 0 618.9 316.7">
  <!-- Generator: Adobe Illustrator 29.3.1, SVG Export Plug-In . SVG Version: 2.1.0 Build 151)  -->
  <defs>
    <style>
      .st0 {
        fill: #cfdd28;
      }
    </style>
  </defs>
  <path class="st0" d="M614.6,87.9L484.7,1.6c-1.9-1.2-4.2-1.8-6.6-1.5,0,0-439.8,61-439.8,61-9.6,1.4-11.1,14.3-2.5,18.1,0,0,293.5,129.2,344.1,151.5-95,14.5-367.8,56.3-367.7,56.2-8.2,1.5-13.6,9.3-12.1,17.4,1.5,8.2,9.3,13.6,17.4,12.1,0,0,397.6-71.9,397.6-71.9,9.2-1.6,10.9-14.2,2.3-18.1,0,0-291.7-128.4-343.4-151.2,56.2-7.8,396.5-55,403-55.9,5.4,3.6,108.8,72.3,120.4,80-5.8,13.8-83.4,198.1-83.4,198.1-2.3,6,6.2,9.9,9.1,4.1l94.8-201.8c2-4.2.6-9.2-3.4-11.8Z"/>
</svg>