<svg xmlns="http://www.w3.org/2000/svg" width="20" height="20" viewBox="0 0 20 20"><g class="nc-icon-wrapper" fill="#ffffff"><path d="m2.9993,13.7321c-.5974-.3459-.9993-.992-.9993-1.7321v-6c0-1.1046.8954-2,2-2h7c1.1046,0,2,.8954,2,2v6" fill="none" stroke="#ffffff" stroke-linecap="round" stroke-linejoin="round" stroke-width="2"></path><path d="m15,14h1c1.1046,0,2-.8954,2-2v-1.8377c0-.1075-.0173-.2143-.0513-.3162l-.7208-2.1623c-.1361-.4083-.5183-.6838-.9487-.6838h-3.2792v5" fill="none" stroke="#ffffff" stroke-linecap="round" stroke-linejoin="round" stroke-width="2"></path><path d="m13,10v2c1.1046,0,2,.8954,2,2h1c1.1046,0,2-.8954,2-2v-2h-5Z" stroke-width="0" fill="#ffffff"></path><line x1="11" y1="14" x2="7" y2="14" fill="none" stroke="#ffffff" stroke-linecap="round" stroke-linejoin="round" stroke-width="2"></line><circle cx="5" cy="14" r="2" fill="none" stroke="#ffffff" stroke-linecap="round" stroke-linejoin="round" stroke-width="2" data-color="color-2"></circle><circle cx="13" cy="14" r="2" fill="none" stroke="#ffffff" stroke-linecap="round" stroke-linejoin="round" stroke-width="2" data-color="color-2"></circle></g></svg>